<svg width="310" height="65" viewBox="0 0 310 65" fill="none" xmlns="http://www.w3.org/2000/svg">
<path d="M0 8.125V0L42.2188 24.375V32.5L0 8.125Z" fill="url(#paint0_linear)"/>
<path d="M42.2188 24.375L0 48.75V56.875L42.2188 32.5V24.375Z" fill="#232345"/>
<path d="M42.2207 56.875V65L84.4395 40.625V32.5L42.2207 56.875Z" fill="#1DD882"/>
<path d="M115.837 44.9271C115.919 47.7593 117.992 49.1754 122.056 49.1754C123.615 49.1754 124.888 48.847 125.873 48.1903C126.899 47.4925 127.412 46.6921 127.412 45.7891C127.412 44.8861 127.104 44.1883 126.488 43.6958C125.873 43.2032 124.908 42.7516 123.595 42.3412L117.068 40.0016C112.225 38.3187 109.803 35.5686 109.803 31.7514C109.803 29.2065 110.932 27.1747 113.19 25.656C115.488 24.0962 118.546 23.3164 122.363 23.3164C126.222 23.3164 129.177 24.1578 131.229 25.8407C133.323 27.5237 134.41 29.6374 134.492 32.1823H127.658C127.576 31.1972 127.104 30.4174 126.242 29.8427C125.38 29.268 124.149 28.9808 122.548 28.9808C120.947 28.9808 119.695 29.3092 118.792 29.9659C117.93 30.5816 117.499 31.2998 117.499 32.1208C117.499 33.5574 118.71 34.6245 121.132 35.3224L128.212 37.9698C130.552 38.7497 132.338 39.7553 133.569 40.9867C134.841 42.1771 135.478 43.7367 135.478 45.666C135.478 48.1287 134.308 50.2631 131.968 52.0691C129.546 53.9572 126.345 54.9013 122.363 54.9013C118.382 54.9013 115.18 54.0394 112.759 52.3154C110.337 50.5505 109.105 48.0877 109.064 44.9271H115.837Z" fill="#232345"/>
<path d="M161.641 53.3009C158.932 54.3681 156.798 54.9017 155.238 54.9017C153.678 54.9017 152.304 54.717 151.113 54.3476C149.964 53.9781 148.938 53.424 148.034 52.6852C146.146 51.0022 145.202 48.6832 145.202 45.7279V28.9811H141.016V24.1172H145.202V16.2363H152.467V24.1172H160.595V28.9811H152.467V45.4816C152.467 47.9444 153.637 49.1758 155.977 49.1758C157.168 49.1758 158.707 48.8473 160.595 48.1907L161.641 53.3009Z" fill="#232345"/>
<path d="M170.206 24.0552H177.471V54.0393H170.206V24.0552ZM169.344 14.4504C169.344 13.1369 169.733 12.1108 170.514 11.372C171.293 10.5921 172.401 10.2021 173.838 10.2021C175.233 10.2021 176.32 10.5921 177.101 11.372C177.921 12.1108 178.333 13.1369 178.333 14.4504C178.333 15.7639 177.921 16.8106 177.101 17.5904C176.32 18.3293 175.233 18.6987 173.838 18.6987C172.401 18.6987 171.293 18.3293 170.514 17.5904C169.733 16.8106 169.344 15.7639 169.344 14.4504Z" fill="#232345"/>
<path d="M217.654 54.0398H208.788L201.399 44.435L194.504 54.0398H185.576L197.213 39.1401L185.576 24.0557H194.504L201.83 33.6604L208.788 24.0557H217.654L206.079 39.1401L217.654 54.0398Z" fill="#232345"/>
<path d="M222.045 32.3057H239.346V38.6473H222.045V32.3057Z" fill="#232345"/>
<path d="M259.824 23.3164C261.712 23.3164 263.395 23.6448 264.873 24.3015C266.391 24.9172 267.663 25.7382 268.69 26.7643C270.741 28.7345 271.953 31.2178 272.323 34.2141L264.996 34.3988C264.667 33.0853 264.051 31.9976 263.149 31.1357C262.287 30.2737 261.281 29.8427 260.132 29.8427C258.981 29.8427 257.996 30.0274 257.177 30.3968C256.355 30.7253 255.637 31.2588 255.022 31.9976C253.625 33.7216 252.928 36.1022 252.928 39.1396C252.928 42.1771 253.584 44.4756 254.898 46.0354C256.211 47.554 257.792 48.3134 259.639 48.3134C261.527 48.3134 262.881 47.8824 263.703 47.0205C264.565 46.1175 264.996 44.9066 264.996 43.3879H272.323C272.323 46.6717 271.234 49.4011 269.059 51.5766C266.843 53.7931 263.743 54.9013 259.762 54.9013C255.822 54.9013 252.517 53.4647 249.85 50.5915C247.018 47.513 245.602 43.6752 245.602 39.0781C245.602 34.2347 247.018 30.3559 249.85 27.4415C252.517 24.6915 255.841 23.3164 259.824 23.3164Z" fill="#232345"/>
<path d="M281.611 11.8027H288.876V54.0391H281.611V11.8027Z" fill="#232345"/>
<path d="M301.452 24.0552H308.717V54.0393H301.452V24.0552ZM300.59 14.4504C300.59 13.1369 300.98 12.1108 301.76 11.372C302.539 10.5921 303.647 10.2021 305.084 10.2021C306.479 10.2021 307.568 10.5921 308.348 11.372C309.169 12.1108 309.579 13.1369 309.579 14.4504C309.579 15.7639 309.169 16.8106 308.348 17.5904C307.568 18.3293 306.479 18.6987 305.084 18.6987C303.647 18.6987 302.539 18.3293 301.76 17.5904C300.98 16.8106 300.59 15.7639 300.59 14.4504Z" fill="#232345"/>
<defs>
<linearGradient id="paint0_linear" x1="-3.60954e-07" y1="4.66166" x2="39.668" y2="28.1458" gradientUnits="userSpaceOnUse">
<stop stop-color="#121231"/>
<stop offset="0.790016" stop-color="#090921"/>
</linearGradient>
</defs>
</svg>
